<?xml version="1.0" standalone="no"?><!DOCTYPE svg PUBLIC "-//W3C//DTD SVG 1.1//EN" "http://www.w3.org/Graphics/SVG/1.1/DTD/svg11.dtd"><svg t="1552533680033" class="icon" style="" viewBox="0 0 1046 1024" version="1.1" xmlns="http://www.w3.org/2000/svg" p-id="4680" xmlns:xlink="http://www.w3.org/1999/xlink" width="130.75" height="128"><defs><style type="text/css"></style></defs><path d="M948.751515 86.626263H98.133333C43.959596 86.626263 0 130.585859 0 184.759596v654.222222c0 54.173737 43.959596 98.133333 98.133333 98.133334h850.618182c54.173737 0 98.133333-43.959596 98.133333-98.133334v-654.222222c0-54.173737-43.959596-98.133333-98.133333-98.133333z m16.290909 652.282828L759.725253 465.066667s-11.894949-22.109091-53.785859-22.109091c-47.579798 0-61.80202 21.462626-61.80202 21.462626L464.161616 742.012121s-9.826263 18.618182-33.745454 18.618182c-25.082828 0-37.107071-18.618182-37.107071-18.618182L298.666667 633.923232s-24.177778-32.064646-55.725253-32.064646c-31.418182 0-57.406061 35.555556-57.40606 35.555555l-103.822223 129.29293V202.343434c0-18.10101 14.610101-32.711111 32.711111-32.711111h817.907071c18.10101 0 32.711111 14.739394 32.711111 32.711111v536.565657zM474.246465 381.026263c0 64-51.846465 115.846465-115.846465 115.846464-64 0-115.846465-51.846465-115.846465-115.846464 0-64 51.846465-115.846465 115.846465-115.846465 64 0.129293 115.846465 51.975758 115.846465 115.846465z" fill="" p-id="4681"></path></svg>