<?xml version="1.0" standalone="no"?><!DOCTYPE svg PUBLIC "-//W3C//DTD SVG 1.1//EN" "http://www.w3.org/Graphics/SVG/1.1/DTD/svg11.dtd"><svg t="1552532936803" class="icon" style="" viewBox="0 0 1024 1024" version="1.1" xmlns="http://www.w3.org/2000/svg" p-id="4328" xmlns:xlink="http://www.w3.org/1999/xlink" width="128" height="128"><defs><style type="text/css"></style></defs><path d="M768.981333 829.269333c-184.213333 153.792-458.666667 144.213333-631.637333-28.778666-183.125333-183.125333-183.125333-480.021333 0-663.146667 183.104-183.125333 480-183.125333 663.104 0 172.970667 172.970667 182.549333 447.466667 28.778667 631.68l1.28 1.237333 181.034666 181.034667a42.453333 42.453333 0 0 1-0.106666 60.202667c-16.64 16.64-43.605333 16.661333-60.181334 0.085333l-181.034666-181.034667-1.237334-1.28z m-28.8-89.066666c149.802667-149.824 149.802667-392.746667 0-542.570667-149.824-149.824-392.746667-149.824-542.570666 0-149.802667 149.824-149.802667 392.746667 0 542.570667 149.824 149.845333 392.746667 149.845333 542.549333 0z" p-id="4329"></path><path d="M703.573333 293.333333c0.277333 1.813333 0.426667 3.648 0.426667 5.482667V672a31.872 31.872 0 0 1-32 32h-106.56a31.978667 31.978667 0 1 1 0-64H640V320H415.850667A31.850667 31.850667 0 0 1 384 288c0-17.664 14.165333-32 31.850667-32h256.298666a31.850667 31.850667 0 0 1 31.402667 37.333333zM331.946667 393.322667c5.781333 5.76 9.365333 13.717333 9.365333 22.549333v186.666667l4.373333-4.373334a31.210667 31.210667 0 0 1 44.224-0.042666l1.066667 1.066666a29.290667 29.290667 0 0 1-1.194667 43.050667l-55.722666 50.154667c-5.845333 7.104-14.72 11.626667-24.746667 11.626666-17.664 0-32-14.165333-32-31.850666V448h-32.021333A31.914667 31.914667 0 0 1 213.333333 416c0-17.664 14.186667-32 31.978667-32H309.333333c8.810667 0 16.789333 3.541333 22.570667 9.28l0.042667 0.021333zM384 394.666667c0-17.664 14.336-32 32.128-32h170.410667a32 32 0 1 1 0 64h-170.410667A32 32 0 0 1 384 394.666667z m21.333333 85.44c0-17.728 14.336-32.106667 31.936-32.106667h149.461334c17.642667 0 31.936 14.250667 31.936 32.106667v106.453333c0 17.728-14.336 32.106667-31.936 32.106667h-149.461334A31.957333 31.957333 0 0 1 405.333333 586.56v-106.453333z m64 42.666666v21.12c0 6.208 4.693333 10.773333 10.453334 10.773334h64.426666c5.866667 0 10.453333-4.821333 10.453334-10.773334v-21.12a10.453333 10.453333 0 0 0-10.453334-10.773333h-64.426666a10.56 10.56 0 0 0-10.453334 10.773333zM257.28 257.28a31.914667 31.914667 0 0 1 45.248-0.021333l45.290667 45.290666c12.501333 12.48 12.586667 32.64 0 45.226667-12.501333 12.501333-32.682667 12.586667-45.248 0.021333l-45.290667-45.290666a31.914667 31.914667 0 0 1 0-45.226667z" p-id="4330"></path></svg>