<?xml version="1.0" standalone="no"?><!DOCTYPE svg PUBLIC "-//W3C//DTD SVG 1.1//EN" "http://www.w3.org/Graphics/SVG/1.1/DTD/svg11.dtd"><svg t="1551150660474" class="icon" style="" viewBox="0 0 1024 1024" version="1.1" xmlns="http://www.w3.org/2000/svg" p-id="3483" xmlns:xlink="http://www.w3.org/1999/xlink" width="128" height="128"><defs><style type="text/css"></style></defs><path d="M512 0C230.4 0 0 230.4 0 512s230.4 512 512 512 512-230.4 512-512S793.6 0 512 0z m-48 224c0-25.6 22.4-48 48-48s48 22.4 48 48v288c0 25.6-22.4 48-48 48s-48-22.4-48-48V224zM512 825.6c-166.4 0-304-137.6-304-304 0-80 32-156.8 86.4-214.4 19.2-19.2 48-19.2 67.2 0 19.2 19.2 19.2 48 0 67.2a205.44 205.44 0 0 0-60.8 147.2c0 115.2 92.8 208 208 208s208-92.8 208-208c0-54.4-22.4-108.8-60.8-147.2-19.2-19.2-19.2-48 0-67.2 19.2-19.2 48-19.2 67.2 0 57.6 57.6 89.6 134.4 89.6 214.4 3.2 166.4-134.4 304-300.8 304z" p-id="3484"></path></svg>