<?xml version="1.0" standalone="no"?><!DOCTYPE svg PUBLIC "-//W3C//DTD SVG 1.1//EN" "http://www.w3.org/Graphics/SVG/1.1/DTD/svg11.dtd"><svg t="1553863441391" class="icon" style="" viewBox="0 0 1025 1024" version="1.1" xmlns="http://www.w3.org/2000/svg" p-id="2192" xmlns:xlink="http://www.w3.org/1999/xlink" width="128.125" height="128"><defs><style type="text/css"></style></defs><path d="M961.793 446.344 961.793 446.344 202.079 446.344c-28.215 0-52.07 18.43-60.285 43.93l0 0L75.51 694.483 75.51 129.847l0 0 316.499 0 0 0 0.07 0c0 69.927 56.645 126.57 126.575 126.57l0 0 316.499 0 0 126.572 63.28 0L898.433 256.417c0-34.927-28.35-63.287-63.28-63.287L518.579 193.13c-34.925 0-63.285-28.355-63.285-63.282l0 0c0-34.93-28.285-63.287-63.285-63.287l0 0L75.51 66.561c-34.927 0-63.285 28.357-63.285 63.287l0 759.571c0 34.93 28.357 63.28 63.285 63.28l759.573 0c28.215 0 52.07-18.425 60.285-43.93l0.07 0 129.5-399.137C1024.937 474.704 996.722 446.416 961.793 446.344zM838.368 889.418 75.51 889.418l123.285-379.787 762.853 0L838.368 889.418z" p-id="2193"></path></svg>