<?xml version="1.0" standalone="no"?><!DOCTYPE svg PUBLIC "-//W3C//DTD SVG 1.1//EN" "http://www.w3.org/Graphics/SVG/1.1/DTD/svg11.dtd"><svg t="1553926426744" class="icon" style="" viewBox="0 0 1024 1024" version="1.1" xmlns="http://www.w3.org/2000/svg" p-id="4484" xmlns:xlink="http://www.w3.org/1999/xlink" width="128" height="128"><defs><style type="text/css"></style></defs><path d="M747.2 663.808c-54.656 0-99.008 44.416-99.008 99.008 0 54.528 44.352 98.944 99.008 98.944 54.528 0 98.944-44.416 98.944-98.944 0-54.592-44.416-99.008-98.944-99.008z m0 147.008a48.064 48.064 0 0 1 0-96c26.432 0 48 21.504 48 48 0 26.432-21.568 48-48 48z m261.696-99.776c-3.712-19.584-16.32-32.256-32.448-32.256h-2.24a56.128 56.128 0 0 1-56.064-56.064c0-8.128 3.52-18.048 4.864-21.12a40.96 40.96 0 0 0-15.232-50.24l-65.536-36.288a44.416 44.416 0 0 0-47.872 9.6c-8.128 8.384-29.888 25.728-44.8 25.728-15.04 0-36.864-17.664-45.056-26.24a44.16 44.16 0 0 0-47.744-9.92l-1.28 0.448-66.624 36.672-1.664 1.024a40.576 40.576 0 0 0-13.76 49.024 63.616 63.616 0 0 1 4.928 21.376 56.128 56.128 0 0 1-56.064 56h-2.56c-15.808 0-28.416 12.672-32.128 32.32-0.576 3.072-5.504 30.08-5.504 52.032 0 21.952 4.928 49.024 5.504 52.096 3.712 19.584 16.32 32.256 32.448 32.256h2.24c30.912 0 56.064 25.152 56.064 56.064 0 8.128-3.52 18.048-4.864 21.248-7.68 17.152-1.792 38.336 15.168 50.112l64.32 35.84a43.52 43.52 0 0 0 48.128-10.112c7.936-8.64 30.4-27.392 45.76-27.392 15.552 0 37.76 18.816 46.08 27.968a43.968 43.968 0 0 0 32 13.632c5.76 0 11.136-1.088 17.792-4.032l65.024-35.904 1.536-1.024a40.576 40.576 0 0 0 13.76-48.96c-0.448-1.28-4.928-12.096-4.928-21.376 0-30.912 25.152-56.064 56.064-56.064h2.56c15.808 0 28.416-12.672 32.128-32.256 0-0.256 5.504-29.056 5.504-52.096 0-21.888-4.928-49.024-5.504-52.096z m-48.704 86.4c-53.248 6.976-93.056 52.352-92.992 106.112 0 12.48 3.008 24.32 5.632 32.384l-46.912 25.92a188.288 188.288 0 0 0-19.264-16.512c-20.736-15.36-40.832-23.168-59.712-23.168-18.688 0-38.592 7.68-59.2 22.72a193.216 193.216 0 0 0-19.2 16.192l-44.8-25.024a106.24 106.24 0 0 0 5.632-32.512c0.064-53.76-39.68-99.2-92.992-106.176a245.504 245.504 0 0 1-3.2-34.24c0-11.328 1.856-25.472 3.2-34.176A106.944 106.944 0 0 0 629.376 622.72c0-12.48-3.008-24.32-5.632-32.384l48.448-26.56c4.16 3.968 10.88 9.92 19.2 15.808 20.288 14.528 39.936 21.888 58.24 21.888 18.112 0 37.568-7.296 57.728-21.504 8.256-5.76 14.912-11.52 19.136-15.488l46.336 25.792a106.944 106.944 0 0 0-5.632 32.448c0 53.76 39.68 99.136 92.992 106.176 1.344 8.896 3.2 23.04 3.2 34.176 0 11.264-1.856 25.344-3.2 34.24z m-884.48 144.896v-56.064c0-190.72 147.072-347.712 334.336-365.44h0.448c11.52-1.088 23.04-1.664 34.88-1.664l5.248 0.064c41.408-3.2 104.128-12.928 136.896-42.176l16-12.48a253.056 253.056 0 0 0 98.56-200.448C702.016 123.52 586.88 9.152 445.248 9.152c-141.568 0-256.768 114.368-256.768 254.976 0 78.464 35.968 151.552 98.56 200.448l16 12.48-18.816 7.552C117.376 550.848 9.6 708.48 9.6 886.272v88.896c0 18.048 14.784 32.832 33.088 32.832H526.08a336.896 336.896 0 0 1-40-65.6H75.776zM254.72 264.128c0-104.448 85.504-189.376 190.592-189.376 105.088 0 190.592 84.928 190.592 189.376 0 104.448-85.504 189.376-190.592 189.376-105.088 0-190.592-84.928-190.592-189.376z" p-id="4485"></path></svg>