<?xml version="1.0" standalone="no"?><!DOCTYPE svg PUBLIC "-//W3C//DTD SVG 1.1//EN" "http://www.w3.org/Graphics/SVG/1.1/DTD/svg11.dtd"><svg t="1553926539238" class="icon" style="" viewBox="0 0 1030 1024" version="1.1" xmlns="http://www.w3.org/2000/svg" p-id="5984" xmlns:xlink="http://www.w3.org/1999/xlink" width="128.75" height="128"><defs><style type="text/css"></style></defs><path d="M985.838509 763.229814h-25.440993v-82.68323c0-69.962733-57.242236-133.565217-133.565218-133.565218s-127.204969 63.602484-127.204969 133.565218V763.229814h-25.440994c-19.080745 0-31.801242 12.720497-31.801242 31.801242v190.807453c0 19.080745 12.720497 31.801242 31.801242 31.801243h318.012423c19.080745 0 31.801242-12.720497 31.801242-31.801243v-190.807453c-6.360248-19.080745-19.080745-31.801242-38.161491-31.801242z m-114.484472 146.285714c0 19.080745-19.080745 38.161491-44.521739 38.161491s-44.521739-19.080745-44.521739-38.161491v-44.521739c0-19.080745 19.080745-38.161491 44.521739-38.161491s44.521739 19.080745 44.521739 38.161491v44.521739z m25.440994-146.285714H763.229814v-82.68323c0-38.161491 31.801242-69.962733 69.962733-69.962733s69.962733 31.801242 69.962733 69.962733V763.229814zM489.73913 368.89441c89.043478-19.080745 171.726708 38.161491 184.447205 127.204969 6.360248 12.720497 25.440994 25.440994 38.161491 25.440994 19.080745-6.360248 25.440994-19.080745 25.440994-38.161491-25.440994-120.84472-139.925466-197.167702-260.770186-178.086957-114.484472 25.440994-197.167702 139.925466-171.726709 260.770187 19.080745 120.84472 139.925466 197.167702 260.770187 178.086956 19.080745-6.360248 25.440994-19.080745 25.440994-38.16149s-19.080745-31.801242-38.161491-25.440994c-89.043478 19.080745-171.726708-38.161491-184.447205-127.204969-19.080745-89.043478 38.161491-171.726708 120.84472-184.447205z" fill="" p-id="5985"></path><path d="M553.341615 947.677019c-19.080745 6.360248-31.801242 6.360248-50.881988 6.360248-19.080745 0-38.161491-6.360248-57.242236-6.360248l-50.881987-114.484472c-44.521739-12.720497-89.043478-38.161491-120.844721-69.962733l-120.84472 12.720497c-25.440994-31.801242-44.521739-63.602484-57.242236-101.763976L165.36646 572.42236c0-12.720497-6.360248-38.161491-6.360249-63.602484s0-50.881988 6.360249-69.962733L95.403727 337.093168c12.720497-38.161491 38.161491-69.962733 57.242236-101.763975l120.84472 19.080745c31.801242-31.801242 76.322981-57.242236 120.844721-69.962733L445.217391 69.962733c19.080745 0 38.161491-6.360248 57.242236-6.360249 19.080745 0 38.161491 6.360248 57.242236 6.360249l50.881988 114.484472c44.521739 12.720497 89.043478 38.161491 120.84472 69.962733l120.844721-12.720497c25.440994 31.801242 44.521739 63.602484 57.242236 101.763975L839.552795 445.217391c6.360248 19.080745 6.360248 38.161491 6.360248 57.242236 6.360248 12.720497 12.720497 19.080745 31.801243 19.080746s25.440994-6.360248 31.801242-19.080746v-6.360248-6.360249-12.720496-19.080746l44.521739-82.68323 19.080745-25.440993-12.720496-31.801243c-12.720497-38.161491-38.161491-76.322981-63.602485-114.484472l-19.080745-25.440993-38.161491 6.360248-95.403727 12.720497c-25.440994-25.440994-57.242236-38.161491-95.403726-57.242236L616.944099 44.521739 597.863354 12.720497 566.062112 6.360248h-12.720497c-12.720497 0-31.801242-6.360248-50.881988-6.360248-25.440994 0-38.161491 6.360248-57.242236 6.360248h-12.720497l-31.801242 6.360249-12.720497 31.801242-38.16149 89.043478c-38.161491 12.720497-69.962733 31.801242-95.403727 50.881988l-95.403727-6.360248-31.801242-6.360249-25.440994 31.801242C69.962733 241.689441 50.881988 279.850932 38.161491 318.012422l-12.720497 25.440994 19.080745 25.440994 57.242236 76.322981c0 19.080745-6.360248 38.161491-6.360248 57.242236 0 19.080745 0 38.161491 6.360248 57.242236L44.521739 636.024845l-19.080745 25.440994 12.720497 31.801242c12.720497 38.161491 38.161491 76.322981 63.602484 114.484472l25.440994 38.16149 38.161491-6.360248 89.043478-6.360248c25.440994 25.440994 57.242236 38.161491 95.403727 57.242236l38.16149 89.043478 12.720497 31.801242 31.801242 6.360249H445.217391c19.080745 0 31.801242 6.360248 57.242236 6.360248 19.080745 0 38.161491 0 57.242236-6.360248 19.080745 0 31.801242-12.720497 31.801243-31.801243-6.360248-25.440994-19.080745-38.161491-38.161491-38.16149z" fill="" p-id="5986"></path></svg>