<?xml version="1.0" standalone="no"?><!DOCTYPE svg PUBLIC "-//W3C//DTD SVG 1.1//EN" "http://www.w3.org/Graphics/SVG/1.1/DTD/svg11.dtd"><svg t="1553926482821" class="icon" style="" viewBox="0 0 1024 1024" version="1.1" xmlns="http://www.w3.org/2000/svg" p-id="5239" xmlns:xlink="http://www.w3.org/1999/xlink" width="128" height="128"><defs><style type="text/css"></style></defs><path d="M314.084 129.883h660.597v145.169H314.084zM314.084 438.579h660.597v145.185H314.084zM314.084 748.951h660.597v145.165H314.084zM142.867 129.883c-40.024 0-72.447 32.435-72.447 72.464 0 39.993 32.423 72.467 72.447 72.467 40.028 0 72.467-32.474 72.467-72.467 0-40.03-32.439-72.464-72.467-72.464zM142.867 438.203c-40.024 0-72.447 32.435-72.447 72.46 0 40.016 32.423 72.451 72.447 72.451 40.028 0 72.467-32.436 72.467-72.451 0-40.025-32.439-72.46-72.467-72.46zM142.867 747.888c-40.024 0-72.447 32.435-72.447 72.467 0 40.009 32.423 72.443 72.447 72.443 40.028 0 72.467-32.435 72.467-72.443 0-40.033-32.439-72.467-72.467-72.467z" p-id="5240"></path></svg>