<?xml version="1.0" standalone="no"?><!DOCTYPE svg PUBLIC "-//W3C//DTD SVG 1.1//EN" "http://www.w3.org/Graphics/SVG/1.1/DTD/svg11.dtd"><svg t="1553926749993" class="icon" style="" viewBox="0 0 1024 1024" version="1.1" xmlns="http://www.w3.org/2000/svg" p-id="6718" xmlns:xlink="http://www.w3.org/1999/xlink" width="128" height="128"><defs><style type="text/css"></style></defs><path d="M614.592 954.24 92.352 954.24c-12.992 0-23.36-11.072-22.592-24.128 2.88-51.584 13.696-172.032 52.8-227.584 58.944-83.968 253.632-54.976 308.224-130.176 6.016-8.32 7.104-30.336 7.04-47.488-0.064-6.4-2.752-12.544-7.552-16.832C383.68 466.176 352 392.832 351.296 322.176 349.824 183.552 370.176 68.288 513.664 68.288c139.008 0 160.448 114.112 160.448 251.648 0 72.128-31.936 145.92-78.656 187.968C590.784 512.128 588.032 518.144 587.968 524.48 587.648 541.568 588.416 564.032 594.56 572.416c5.504 7.36 12.224 13.696 20.096 19.392l0 22.656L511.424 614.464 456 614.464l0 55.36 0 125.76 0 55.424 55.424 0 103.168 0L614.592 954.24zM954.24 671.168l-158.4 0L795.84 512.64l-125.76 0 0 158.592-158.72 0 0 125.824 158.592 0 0 158.656 125.632 0 0-158.592 158.656 0L954.24 671.168z" p-id="6719"></path></svg>